<?xml version="1.0" standalone="no"?>
<!DOCTYPE svg PUBLIC "-//W3C//DTD SVG 20010904//EN"
 "http://www.w3.org/TR/2001/REC-SVG-20010904/DTD/svg10.dtd">
<svg version="1.0" xmlns="http://www.w3.org/2000/svg"
 width="9000.000000pt" height="9000.000000pt" viewBox="0 0 9000.000000 9000.000000"
 preserveAspectRatio="xMidYMid meet">
<metadata>
Created by potrace 1.15, written by Peter Selinger 2001-2017
</metadata>
<g transform="translate(0.000000,9000.000000) scale(0.100000,-0.100000)"
fill="#000000" stroke="none">
<path d="M41615 76099 c-110 -61 -555 -302 -990 -536 -434 -234 -826 -447
-870 -473 -44 -26 -213 -119 -375 -208 -312 -169 -1486 -802 -1655 -892 -55
-29 -127 -70 -160 -90 -68 -42 -211 -120 -1335 -728 -437 -236 -879 -476 -981
-533 -102 -57 -440 -241 -752 -409 -312 -168 -567 -309 -566 -315 0 -13 443
-295 1759 -1122 190 -119 428 -271 530 -337 198 -128 412 -263 1275 -804 303
-190 602 -380 665 -422 63 -42 430 -274 815 -515 385 -241 783 -493 885 -559
102 -66 428 -272 725 -459 297 -186 698 -439 892 -560 l352 -222 0 -18687 c1
-10279 3 -18688 5 -18688 3 0 474 270 1048 601 1161 669 6322 3642 6324 3643
1 1 9 3346 18 7435 9 4089 17 7435 19 7436 1 2 10926 6032 12910 7127 158 87
294 161 302 165 13 4 15 -899 15 -7296 0 -4016 3 -7301 6 -7301 3 0 1812 1051
4020 2337 l4014 2336 -1 671 c-1 1370 -114 21285 -121 21291 -3 4 -1695 -889
-3760 -1984 l-3753 -1990 -30 29 -30 29 -6774 -3770 c-3726 -2073 -6776 -3767
-6779 -3764 -3 3 2 3327 11 7387 8 4061 15 7434 14 7496 l-2 114 -3640 2335
c-2002 1284 -3646 2337 -3654 2340 -8 4 -45 -10 -82 -30 -37 -20 -70 -37 -73
-37 -3 0 -6 16 -6 35 0 19 -3 35 -7 34 -5 0 -98 -50 -208 -110z"/>
<path d="M32819 56497 c-2711 -3105 -3987 -4567 -4219 -4832 -345 -395 -1109
-1271 -3955 -4530 -1402 -1606 -2874 -3292 -3272 -3747 -416 -477 -718 -830
-711 -834 6 -4 -86 -103 -213 -232 -147 -148 -211 -218 -185 -203 21 12 1641
950 3600 2085 1958 1135 3824 2216 4146 2402 l584 339 1281 1427 c704 784
1408 1569 1565 1744 157 175 406 453 555 619 269 299 405 451 1051 1170 187
209 503 561 702 783 l362 403 0 162 c0 89 18 1206 39 2482 22 1276 38 2321 37
2322 -1 2 -616 -700 -1367 -1560z"/>
<path d="M41755 35775 c0 -2634 1 -3711 2 -2392 2 1319 2 3475 0 4790 -1 1316
-2 237 -2 -2398z"/>
<path d="M22000 36771 l0 -1908 355 -202 c195 -110 357 -201 360 -201 3 0 6
328 7 730 l3 729 1715 -974 1715 -973 3 441 c2 350 0 444 -10 450 -7 4 -553
314 -1213 689 -660 374 -1427 809 -1705 967 l-505 287 -3 736 -2 736 -355 201
c-195 110 -357 201 -360 201 -3 0 -5 -859 -5 -1909z"/>
<path d="M29040 31383 l0 -3518 583 -331 c320 -183 585 -330 589 -327 4 2 7
637 8 1410 0 774 1 1407 3 1408 1 1 684 -386 1517 -860 l1515 -861 0 -1418 0
-1418 579 -329 c318 -181 582 -329 587 -329 5 0 9 466 9 1103 0 607 3 2190 7
3518 l6 2415 -584 331 -584 332 -6 -762 c-3 -419 -7 -1085 -8 -1479 0 -395 -4
-718 -8 -718 -5 0 -687 386 -1518 858 l-1510 858 -2 1483 c-1 816 -6 1488 -10
1492 -14 14 -1154 659 -1164 659 -5 0 -9 -1400 -9 -3517z"/>
<path d="M22000 32333 l0 -1738 268 -151 c147 -83 690 -392 1207 -686 517
-295 1329 -756 1804 -1027 474 -270 867 -491 872 -491 5 0 9 716 9 1734 l0
1734 -380 216 c-209 119 -385 216 -390 216 -7 0 -10 -445 -10 -1290 0 -709 -4
-1290 -9 -1290 -4 0 -212 116 -462 258 l-454 259 -3 1254 -2 1254 -360 205
c-199 113 -365 206 -370 208 -6 2 -11 -460 -12 -1246 l-3 -1249 -470 268 -470
267 -5 1303 -5 1302 -350 199 c-192 109 -362 206 -377 214 l-28 15 0 -1738z"/>
<path d="M37763 29718 c-57 -112 -142 -279 -191 -373 -49 -93 -149 -289 -224
-435 -334 -652 -533 -1040 -698 -1360 -276 -537 -554 -1079 -705 -1375 -76
-148 -150 -292 -165 -320 -16 -27 -128 -246 -250 -485 -123 -239 -279 -545
-348 -678 -68 -134 -120 -247 -116 -252 11 -9 1261 -720 1268 -720 5 0 64 109
181 335 48 94 102 197 120 230 18 33 75 143 128 245 53 102 101 191 105 198 7
10 399 -208 1623 -903 888 -505 1619 -923 1626 -929 12 -11 56 -147 391 -1196
l138 -435 230 -130 c126 -72 376 -215 557 -317 l327 -186 0 259 c0 143 -4 258
-8 255 -4 -2 -61 163 -126 367 -116 362 -202 629 -479 1492 -75 231 -282 879
-462 1440 -180 561 -409 1277 -510 1590 -101 314 -294 917 -430 1340 -135 424
-300 934 -365 1135 -65 201 -140 433 -166 515 -26 83 -54 157 -63 166 -15 15
-1238 711 -1271 724 -11 4 -40 -45 -117 -197z m922 -2218 c79 -250 182 -579
230 -730 195 -616 734 -2344 732 -2347 -5 -5 -2272 1286 -2280 1299 -6 9 71
173 224 478 127 256 387 778 576 1160 l345 695 15 -50 c8 -27 79 -255 158
-505z"/>
<path d="M22000 29233 l1 -438 2064 -1175 c1135 -646 2071 -1176 2080 -1178
13 -3 15 45 15 427 l0 431 -37 24 c-28 17 -3588 2045 -4070 2318 l-53 30 0
-439z"/>
<path d="M22528 27450 c-358 -61 -571 -365 -650 -930 -20 -146 -17 -661 5
-820 127 -902 514 -1628 1063 -1991 532 -352 907 -341 1127 35 119 205 189
480 262 1042 43 328 109 533 207 640 86 94 193 110 330 50 99 -43 164 -90 265
-191 260 -261 405 -699 407 -1230 1 -349 -50 -559 -181 -743 -94 -133 -220
-194 -403 -196 -37 -1 -64 -5 -63 -11 3 -20 333 -908 339 -914 3 -3 69 -6 147
-6 115 1 158 5 227 24 358 96 563 418 630 996 6 50 14 191 17 315 25 957 -279
1842 -831 2418 -237 247 -570 459 -855 544 -84 25 -265 35 -343 19 -132 -28
-243 -110 -336 -249 -128 -192 -208 -463 -267 -902 -44 -335 -65 -461 -95
-577 -93 -362 -266 -433 -536 -220 -203 159 -347 439 -415 801 -30 158 -38
473 -15 613 49 312 192 534 381 592 31 10 56 22 56 27 1 5 -71 204 -158 441
l-158 433 -55 -1 c-30 -1 -76 -5 -102 -9z"/>
<path d="M29208 20704 c-2 -1897 -3 -4038 -3 -4758 l0 -1309 1730 -989 c985
-563 1818 -1034 1935 -1092 541 -269 955 -403 1440 -467 156 -21 472 -16 620
10 432 74 751 242 1034 542 151 161 264 324 367 529 198 399 316 843 371 1400
20 208 17 926 -5 1150 -109 1092 -395 2081 -878 3040 -436 865 -943 1568
-1612 2233 -421 418 -856 763 -1393 1105 -103 66 -3552 2034 -3588 2048 -15 6
-16 -285 -18 -3442z m2512 316 c883 -502 1014 -580 1225 -729 665 -470 1232
-1135 1609 -1889 412 -824 626 -1787 578 -2610 -38 -647 -192 -1095 -481
-1395 -109 -113 -179 -165 -305 -227 -413 -204 -946 -140 -1611 192 -137 69
-1917 1079 -1943 1103 -12 10 -13 516 -6 3049 l7 3036 31 -19 c17 -10 420
-240 896 -511z"/>
<path d="M22000 21303 l0 -476 48 -51 c327 -352 581 -624 752 -806 75 -80 266
-284 425 -455 159 -170 321 -344 360 -385 39 -41 100 -106 136 -145 35 -38 96
-104 134 -145 39 -41 104 -111 145 -155 41 -44 111 -118 155 -165 89 -94 169
-180 355 -380 69 -74 195 -209 280 -300 147 -157 393 -420 415 -444 48 -52
465 -499 524 -561 42 -45 135 -144 206 -220 72 -77 149 -160 172 -185 l43 -45
0 476 0 477 -72 78 c-40 44 -138 149 -218 234 -80 86 -199 214 -265 285 -66
72 -144 155 -172 186 l-53 56 0 1201 0 1202 43 0 c23 0 92 -4 152 -9 109 -10
151 -13 438 -35 l147 -11 -2 480 -3 480 -275 21 c-151 12 -324 24 -385 28 -98
6 -238 16 -420 31 -33 3 -161 12 -285 20 -124 8 -252 17 -285 20 -33 3 -159
12 -280 20 -121 8 -245 17 -275 20 -75 6 -167 12 -425 30 -121 8 -245 17 -275
20 -30 3 -152 12 -270 20 -118 8 -246 17 -285 20 -255 20 -616 45 -647 45
l-38 0 0 -477z m1138 -523 c130 -11 257 -22 282 -25 25 -2 77 -7 115 -10 68
-5 135 -11 240 -21 28 -2 160 -13 295 -24 135 -11 265 -22 290 -24 25 -3 77
-7 115 -11 39 -3 89 -8 113 -11 l42 -5 0 -847 0 -847 -47 50 c-26 28 -92 97
-147 156 -56 58 -135 141 -176 185 -311 328 -460 486 -855 904 -246 261 -464
492 -484 513 -19 20 -32 37 -28 37 5 0 115 -9 245 -20z"/>
<path d="M40918 17458 c-8 -13 -41 -75 -73 -138 -32 -63 -115 -225 -185 -360
-70 -135 -173 -335 -230 -445 -56 -110 -169 -328 -250 -485 -163 -314 -397
-768 -642 -1245 -88 -170 -219 -425 -293 -565 -150 -289 -385 -744 -612 -1185
-85 -165 -215 -415 -288 -555 -73 -140 -200 -385 -283 -545 -897 -1735 -933
-1807 -928 -1820 4 -12 1698 -985 1713 -985 5 0 46 73 92 163 46 89 128 243
181 342 53 99 177 333 275 520 98 187 178 341 179 342 1 1 493 -278 1094 -622
l1092 -624 0 851 c0 468 -3 849 -6 846 -5 -5 -1498 842 -1517 861 -9 9 1498
3044 1513 3049 6 2 10 410 10 1086 0 880 -2 1083 -13 1083 -7 0 -192 102 -411
226 -219 125 -400 227 -401 227 -2 0 -9 -10 -17 -22z"/>
</g>
</svg>
